<?xml version="1.0" encoding="UTF-8" standalone="no"?>
<!-- Created with Inkscape (http://www.inkscape.org/) -->

<svg
   version="1.1"
   id="svg2"
   width="128"
   height="272"
   viewBox="0 0 128 272"
   sodipodi:docname="laurier-droite.svg"
   inkscape:version="1.2.1 (9c6d41e410, 2022-07-14)"
   xmlns:inkscape="http://www.inkscape.org/namespaces/inkscape"
   xmlns:sodipodi="http://sodipodi.sourceforge.net/DTD/sodipodi-0.dtd"
   xmlns="http://www.w3.org/2000/svg"
   xmlns:svg="http://www.w3.org/2000/svg">
  <defs
     id="defs6" />
  <sodipodi:namedview
     id="namedview4"
     pagecolor="#ffffff"
     bordercolor="#000000"
     borderopacity="0.25"
     inkscape:showpageshadow="2"
     inkscape:pageopacity="0.0"
     inkscape:pagecheckerboard="true"
     inkscape:deskcolor="#d1d1d1"
     showgrid="false"
     inkscape:zoom="3.7757353"
     inkscape:cx="63.298929"
     inkscape:cy="135.86758"
     inkscape:window-width="2560"
     inkscape:window-height="1369"
     inkscape:window-x="-8"
     inkscape:window-y="-8"
     inkscape:window-maximized="1"
     inkscape:current-layer="g8" />
  <g
     inkscape:groupmode="layer"
     inkscape:label="Image"
     id="g8">
    <path
       style="fill:#000000"
       d="m 28.10601,268.6422 c -2.75,-1.10258 -7.62129,-4.25444 -10.8251,-7.00414 -4.99612,-4.28797 -6.11431,-4.84466 -7.8573598,-3.91181 -2.37629,1.27175 -3.41416,0.46225 -4.37056,-3.4089 -0.57669,-2.33424 -0.33418,-2.90549 1.42924,-3.36663 1.16808,-0.30546 2.14339,-0.6154 2.16737,-0.68875 0.024,-0.0734 0.42263,-4.70578 0.88591,-10.29428 0.6066998,-7.31866 1.5288298,-11.65438 3.2965698,-15.5 3.0954,-6.73386 7.37043,-11.83909 9.91385,-11.83909 4.19389,0 6.47842,13.22556 3.50346,20.28212 -0.74614,1.76983 -3.23161,5.58038 -5.52326,8.46788 -2.29164,2.8875 -3.87468,5.25 -3.51786,5.25 1.30868,0 20.1321,-10.21306 22.91881,-12.4351 l 2.87486,-2.29233 -1.19797,-6.50158 c -2.38176,-12.92631 -1.2005,-23.33137 3.23405,-28.48685 2.05884,-2.39353 2.541,-2.55143 4.02654,-1.31854 0.92819,0.77033 2.61902,3.22629 3.75739,5.45769 3.01281,5.90559 2.74517,12.87173 -0.77513,20.17479 -1.5647,3.24606 -3.04706,6.33115 -3.29414,6.85577 -0.60307,1.28048 5.98636,-4.01147 13.31144,-10.69038 l 5.9581,-5.43252 -3.34023,-7.91548 c -4.64931,-11.01763 -4.78321,-24.41547 -0.24402,-24.41547 2.23505,0 6.68953,4.57028 8.10442,8.3151 1.35268,3.58015 1.37175,11.74427 0.0356,15.25849 -0.56539,1.48708 -0.86572,2.86604 -0.66741,3.06435 0.52158,0.52158 8.66102,-10.58561 10.40972,-14.20525 1.45685,-3.01555 1.38828,-3.20472 -4.0637,-11.21147 -5.66833,-8.32449 -7.05467,-12.2368 -6.47762,-18.28021 0.42742,-4.47647 2.84711,-4.92578 7.48332,-1.38957 4.70685,3.59009 7.27492,9.47141 7.40058,16.94856 l 0.10083,6 2.42212,-5 c 1.33216,-2.75 3.18814,-7.39199 4.12441,-10.31553 l 1.70229,-5.31554 -3.45328,-2.65136 c -6.25107,-4.79944 -9.96067,-9.56521 -11.67252,-14.99584 -1.90344,-6.03839 -0.93619,-7.80162 3.37959,-6.16076 6.54854,2.48975 10.40802,7.45608 11.8762,15.28217 0.38694,2.06256 0.90336,3.55029 1.14759,3.30605 0.24424,-0.24424 1.06773,-4.20272 1.82998,-8.79663 1.58108,-9.52888 2.44787,-7.98684 -8.50123,-15.12397 -6.4485,-4.20342 -10.96042,-9.99231 -10.99644,-14.10864 -0.0143,-1.63788 0.56239,-1.81481 4.47717,-1.37356 5.95129,0.6708 10.5967,4.35454 13.80307,10.94563 l 2.58218,5.30798 0.0606,-8.16821 c 0.0333,-4.49252 -0.20348,-8.85633 -0.52621,-9.69735 -0.32274,-0.84103 -3.58524,-2.52176 -7.25001,-3.73496 -7.33032,-2.42664 -14.16325,-8.11069 -14.16325,-11.78183 0,-1.825272 0.58679,-2.117134 4.25,-2.113912 5.34872,0.0047 9.86544,2.702482 13.35632,7.977552 1.47749,2.23265 2.83246,3.91327 3.01102,3.7347 0.42185,-0.42185 -3.1979,-15.629878 -3.88329,-16.315268 -0.28751,-0.287519 -3.1578,-0.903914 -6.3784,-1.369768 -7.37596,-1.066916 -10.15636,-2.150934 -14.16202,-5.521479 -4.15411,-3.495454 -4.17582,-6.063037 -0.0582,-6.886557 4.97078,-0.994157 10.5631,1.075594 15.06207,5.574563 3.84984,3.849836 4.05221,3.933487 3.41975,1.413571 -0.36973,-1.473128 -1.7601,-5.138258 -3.08971,-8.144734 L 86.71605,74.6286 80.91102,74.623 C 73.45239,74.6158 68.30946,73.160348 64.85764,70.079775 62.13751,67.652202 62.1289,67.606007 64.10599,66.047016 c 3.43693,-2.710118 11.6645,-1.424591 16.68033,2.606241 4.75471,3.820988 4.62521,2.701767 -0.63968,-5.528587 l -3.52409,-5.509035 -8.51651,0.654631 c -7.06,0.542675 -9.20614,0.343657 -12.54884,-1.16369 -4.54306,-2.048633 -4.87076,-4.200589 -0.94235,-6.18814 3.9085,-1.977476 9.27106,-1.514346 14.46938,1.249628 2.62687,1.396718 4.93065,2.384959 5.11952,2.196091 0.18886,-0.188869 -2.23087,-3.163023 -5.37718,-6.609232 l -5.72058,-6.265835 -4.37573,1.569745 c -5.36874,1.925978 -13.10452,2.03589 -15.58592,0.221448 -2.32312,-1.698707 -1.32877,-3.423497 3.02154,-5.241175 3.58212,-1.496703 7.98874,-1.053219 12.94011,1.302298 2.43716,1.159432 1.95182,0.395735 -2.58692,-4.070614 l -5.58693,-5.497805 -5.41307,2.677796 c -5.86373,2.900726 -13.96322,3.543562 -16.18662,1.28469 -0.97192,-0.98742 -0.61307,-1.77717 1.72904,-3.805255 2.75007,-2.381348 3.46176,-2.520944 10.23915,-2.008371 4.00601,0.302974 7.51758,0.172349 7.8035,-0.290277 0.28592,-0.462626 -0.87029,-3.077415 -2.56936,-5.810642 C 41.74916,14.122471 41.5757,4.275123 46.27734,7.2059079 c 4.39385,2.7389212 5.82865,6.3045511 5.82865,14.4847841 v 7.904561 l 5.451,4.766662 c 3.40512,2.977624 5.1399,4.016016 4.62211,2.766662 -3.95989,-9.554701 -4.58487,-11.920376 -3.98874,-15.098063 0.84184,-4.487389 2.05458,-5.089752 4.88803,-2.427865 3.95689,3.717301 4.60277,9.339795 2.18562,19.025928 -0.52085,2.087177 0.39135,3.57334 5.5242,9 3.38143,3.575 5.81305,5.6 5.40359,4.5 -0.40946,-1.1 -1.46013,-4.704983 -2.33483,-8.011072 -1.39862,-5.286379 -1.41919,-6.552258 -0.17066,-10.5 1.6296,-5.152688 3.34256,-5.642523 6.22605,-1.780399 3.29237,4.409775 3.44933,12.461045 0.37389,19.178688 -1.40354,3.065746 -2.14511,5.825487 -1.64794,6.13276 0.49718,0.307272 2.74116,3.578479 4.98664,7.26935 l 4.08267,6.710673 -0.79517,-5 C 84.73204,52.4182 89.89953,40.90799 94.31613,49.637435 c 2.83329,5.600013 1.26865,14.042916 -3.89735,21.030442 -1.86778,2.526357 -1.85935,2.578267 1.65493,10.18446 1.94275,4.204837 3.59856,8.237152 3.67958,8.9607 0.081,0.723547 0.46195,-2.607956 0.84652,-7.40334 0.56474,-7.042064 1.21227,-9.494146 3.36689,-12.75 4.38484,-6.625937 7.63929,-4.564859 7.63929,4.838039 0,6.562618 -1.09737,9.196286 -6.08751,14.609949 l -4.14284,4.494456 2.29769,9.263219 2.2977,9.26322 1.26228,-6.79265 c 1.3346,-7.181855 4.13325,-12.725817 7.67721,-15.208098 2.94567,-2.063232 3.59051,-1.90553 4.75734,1.163469 1.73628,4.566777 -0.5991,12.779669 -4.89138,17.201569 -2.01877,2.07974 -4.68954,4.47053 -5.93505,5.31288 -2.18416,1.47716 -2.24095,1.89196 -1.59931,11.68286 l 0.66525,10.15133 2.17991,-5.36356 c 3.20514,-7.88606 6.20268,-12.28936 9.93715,-14.59739 5.83576,-3.6067 6.88742,-2.95558 6.38757,3.95477 -0.59992,8.29382 -4.30843,13.46863 -12.53611,17.4928 -6.69577,3.27491 -6.18215,2.29162 -8.09734,15.50202 -0.51829,3.575 -0.82703,6.62961 -0.6861,6.78802 0.14094,0.15841 1.70307,-1.96665 3.47141,-4.72237 4.01682,-6.25966 8.77461,-10.49223 13.57518,-12.07656 4.32321,-1.42679 5.78923,-0.20008 4.78344,4.0026 -2.08592,8.71599 -7.89725,14.35501 -17.50361,16.98461 l -6.09451,1.66828 -2.68994,7.92771 c -1.47947,4.36024 -3.2161,8.91063 -3.85919,10.11197 -2.17567,4.06436 -1.18683,3.63696 4.80225,-2.07566 6.12469,-5.84196 11.6827,-8.92671 18.26795,-10.13888 7.10966,-1.30871 6.38388,4.88385 -1.52235,12.9892 -5.87346,6.02137 -9.72748,7.52672 -19.29255,7.5355 l -6.07547,0.006 -4.69617,7.25 c -2.58289,3.9875 -5.47393,8.375 -6.42453,9.75 l -1.72837,2.49958 3,-1.94899 c 9.58165,-6.22484 11.77207,-6.99519 19.97048,-7.02348 9.52793,-0.0329 10.46393,1.19971 5.34144,7.0339 -6.40324,7.29288 -16.61387,10.02805 -27.34671,7.32549 l -4.42044,-1.11308 -9.41219,8.86308 c -5.17671,4.87469 -9.3473,8.94006 -9.26798,9.03416 0.0793,0.0941 3.96724,-0.95594 8.63981,-2.33339 9.54767,-2.81462 19.33263,-2.76612 24.92058,0.12352 3.79278,1.96133 3.86339,3.42581 0.32501,6.74168 -8.75162,8.20129 -21.42077,9.71204 -33.63832,4.01125 -3.78857,-1.76778 -7.3191,-3.21414 -7.84563,-3.21414 -0.52652,0 -2.37678,1.01196 -4.11168,2.24881 -1.7349,1.23685 -7.42931,4.61185 -12.65424,7.5 l -9.49988,5.25119 9.99988,0.006 c 11.59857,0.006 15.30391,0.8501 21.78439,4.9599 6.32591,4.01178 6.31687,6.43699 -0.0345,9.25294 -6.83013,3.02821 -17.30572,3.37894 -23.75,0.79518 z M 43.14188,24.512655 c -5.1662,-3.882318 -5.75352,-4.607635 -1.96982,-2.432631 4.22317,2.427622 8.14404,5.51382 6.93395,5.457858 -0.55,-0.02544 -2.78386,-1.386788 -4.96413,-3.025227 z M 18.60601,24.113902 c 0,-0.833085 1.4625,-2.434751 3.25,-3.559259 2.51165,-1.580069 4.32279,-1.928959 7.97214,-1.535716 2.59718,0.279864 4.93052,0.17168 5.18521,-0.24041 0.25468,-0.41209 -1.08278,-2.702733 -2.97214,-5.090317 -2.57031,-3.248084 -3.43521,-5.3127341 -3.43521,-8.2003304 0,-2.6557428 0.44006,-3.8592694 1.41111,-3.8592694 2.16957,0 6.57847,5.8300957 6.67503,8.8267258 0.0474,1.4703 0.15988,4.248274 0.25,6.173274 0.16962,3.623128 0.30713,3.477708 -7.08614,7.493839 -3.74014,2.031696 -11.25,2.025997 -11.25,-0.0085 z M 13.72881,11.626523 C 10.11607,10.773557 5.4881802,7.7724931 5.2505602,6.1286002 c -0.0795,-0.55 1.33952,-1.1426199 3.15338,-1.3169332 C 11.7674,4.4884367 18.91968,7.8917724 21.55818,11.070964 c 1.12122,1.350987 0.91164,1.544056 -1.57973,1.455275 -1.57984,-0.0563 -4.39218,-0.461171 -6.24964,-0.899716 z"
       id="path293" />
  </g>
</svg>
